<?xml version="1.0" encoding="UTF-8" standalone="no"?>
<!-- Generator: Adobe Illustrator 12.0.0, SVG Export Plug-In . SVG Version: 6.00 Build 51448)  -->

<svg
   xmlns:dc="http://purl.org/dc/elements/1.1/"
   xmlns:cc="http://creativecommons.org/ns#"
   xmlns:rdf="http://www.w3.org/1999/02/22-rdf-syntax-ns#"
   xmlns:svg="http://www.w3.org/2000/svg"
   xmlns="http://www.w3.org/2000/svg"
   xmlns:sodipodi="http://sodipodi.sourceforge.net/DTD/sodipodi-0.dtd"
   xmlns:inkscape="http://www.inkscape.org/namespaces/inkscape"
   version="1.1"
   id="レイヤー_1"
   width="100"
   height="100"
   viewBox="0 0 100 99.999997"
   overflow="visible"
   enable-background="new 0 0 369.344 389.812"
   xml:space="preserve"
   sodipodi:docname="Hiragana_KI_01.svg"
   style="overflow:visible"
   inkscape:version="0.92.3 (2405546, 2018-03-11)"><metadata
   id="metadata3104"><rdf:RDF><cc:Work
       rdf:about=""><dc:format>image/svg+xml</dc:format><dc:type
         rdf:resource="http://purl.org/dc/dcmitype/StillImage" /><dc:title /></cc:Work></rdf:RDF></metadata><defs
   id="defs3102" /><sodipodi:namedview
   pagecolor="#ffffff"
   bordercolor="#666666"
   borderopacity="1"
   objecttolerance="10"
   gridtolerance="10"
   guidetolerance="10"
   inkscape:pageopacity="0"
   inkscape:pageshadow="2"
   inkscape:window-width="1920"
   inkscape:window-height="1001"
   id="namedview3100"
   showgrid="false"
   inkscape:zoom="4.8433602"
   inkscape:cx="62.917769"
   inkscape:cy="37.448108"
   inkscape:window-x="-9"
   inkscape:window-y="-9"
   inkscape:window-maximized="1"
   inkscape:current-layer="レイヤー_1" />
<path
   d="m 21.983872,30.709659 c -4.26367,0.457822 -10.748019,-2.286911 -8.461308,0.458022 2.374953,2.850785 4.403538,3.84907 7.203498,3.658177 2.515621,-0.171483 6.746076,-2.858588 10.233569,-2.057399 1.148758,0.263928 1.486322,2.057999 0.571678,4.745104 -0.914644,2.687105 -4.230655,8.232598 -3.258783,10.405052 0.971872,2.172455 8.061115,6.403109 7.775176,9.604664 -0.285938,3.201555 0.445017,8.080124 -2.343938,12.00503 -4.630849,6.517366 -8.804276,20.238429 -2.972844,19.438041 5.831432,-0.800389 7.317754,-9.261498 8.632793,-15.664608 1.315039,-6.40311 2.572449,-8.68902 4.630649,-12.748191 2.058199,-4.059171 6.689248,-13.606808 10.348025,-18.180428 3.658777,-4.573621 8.961953,-12.131091 13.835319,-12.291769 8.690021,-0.286339 10.519309,2.457793 12.005831,5.201926 1.388474,2.563245 1.886716,5.145299 0.628905,8.061115 -1.169968,2.711915 -1.943744,3.316409 -4.516393,4.859959 -2.572649,1.543549 -4.916588,2.28591 -4.916588,0.799588 0,-1.486322 -2.115227,-4.001942 -4.001943,-4.287681 -1.886717,-0.285739 -5.545694,0.457422 -5.774205,2.51542 -0.22851,2.058 2.100821,3.875682 3.258783,6.118171 0.914644,1.771461 1.437698,4.727496 0.628906,6.973987 -1.0291,2.858389 -1.54355,6.631821 -1.658006,11.77712 -0.05026,2.255295 2.000972,6.861332 3.773233,7.604493 1.77226,0.743161 3.464082,0.973873 3.487493,1.943744 0.03122,1.289426 -0.01096,2.069205 -2.515421,3.658177 -3.162736,2.006574 -5.376211,3.074893 -4.748906,3.263384 0.596889,0.179287 2.919417,-0.633507 5.1491,-1.719835 2.229683,-1.086327 2.498213,-1.806877 7.203499,-3.258582 5.374009,-1.658006 12.463452,-2.402367 8.632792,-5.945088 -3.030071,-2.80216 -5.316782,-2.859388 -7.14627,-1.715833 -1.871309,1.169768 -4.402138,0.857617 -7.146471,-0.51445 -3.270188,-1.634994 -3.887488,-3.429265 -3.658777,-6.859531 0.228711,-3.430266 0.342967,-7.604693 1.371866,-10.863276 0.985879,-3.122316 1.715033,-4.229854 3.201555,-4.915787 1.486522,-0.685933 15.264413,-4.116599 15.493324,-11.377124 0.228912,-7.260526 -1.25761,-12.52028 -5.945687,-14.121058 -4.688077,-1.600777 -10.23377,-2.28691 -13.663836,-0.114455 -3.430066,2.172455 -11.662664,8.632792 -17.322613,17.780035 -5.659948,9.14724 -10.119114,16.865389 -10.176342,11.548406 -0.05723,-5.316982 -3.83046,-6.346081 -5.545493,-8.118342 -1.715033,-1.772261 -2.458394,-4.116198 -1.486522,-6.974786 0.971872,-2.858588 1.314839,-8.061115 2.401166,-9.147242 1.086328,-1.086128 11.730497,-5.788011 8.632793,-8.632793 -1.681217,-1.54395 -3.489495,-1.742446 -4.931195,-1.682417 -1.800875,0.075 -2.456993,-2.613669 -2.386559,-3.920304 0.160478,-2.983048 -6.805305,-8.7608543 -7.530657,-6.509761 -0.952663,2.956436 1.649,4.280679 3.364233,6.052939 1.715233,1.772261 3.366235,7.43161 1.422291,9.546837 -1.943944,2.115227 -3.259183,2.686505 -11.77772,3.601349 z"
   id="path3097"
   inkscape:connector-curvature="0"
   style="stroke-width:0.20009717" />
</svg>