<?xml version="1.0" encoding="UTF-8" standalone="no"?>
<!-- Generator: Adobe Illustrator 12.0.0, SVG Export Plug-In . SVG Version: 6.00 Build 51448)  -->

<svg
   xmlns:dc="http://purl.org/dc/elements/1.1/"
   xmlns:cc="http://creativecommons.org/ns#"
   xmlns:rdf="http://www.w3.org/1999/02/22-rdf-syntax-ns#"
   xmlns:svg="http://www.w3.org/2000/svg"
   xmlns="http://www.w3.org/2000/svg"
   xmlns:sodipodi="http://sodipodi.sourceforge.net/DTD/sodipodi-0.dtd"
   xmlns:inkscape="http://www.inkscape.org/namespaces/inkscape"
   version="1.1"
   id="レイヤー_1"
   width="100"
   height="100"
   viewBox="0 0 99.999999 100"
   overflow="visible"
   enable-background="new 0 0 203.705 342.205"
   xml:space="preserve"
   sodipodi:docname="Hiragana_WA_01.svg"
   style="overflow:visible"
   inkscape:version="0.92.3 (2405546, 2018-03-11)"><metadata
   id="metadata2540"><rdf:RDF><cc:Work
       rdf:about=""><dc:format>image/svg+xml</dc:format><dc:type
         rdf:resource="http://purl.org/dc/dcmitype/StillImage" /><dc:title /></cc:Work></rdf:RDF></metadata><defs
   id="defs2538" /><sodipodi:namedview
   pagecolor="#ffffff"
   bordercolor="#666666"
   borderopacity="1"
   objecttolerance="10"
   gridtolerance="10"
   guidetolerance="10"
   inkscape:pageopacity="0"
   inkscape:pageshadow="2"
   inkscape:window-width="1920"
   inkscape:window-height="1001"
   id="namedview2536"
   showgrid="false"
   inkscape:zoom="2.7585805"
   inkscape:cx="83.688953"
   inkscape:cy="115.98628"
   inkscape:window-x="-9"
   inkscape:window-y="-9"
   inkscape:window-maximized="1"
   inkscape:current-layer="レイヤー_1" />
<path
   d="m 39.8635,19.439855 c -4.903783,0.24117 -13.901312,-4.244504 -9.537349,0.80124 4.363964,5.045743 5.940669,5.497399 8.872547,5.360962 2.931878,-0.136438 16.381332,-5.352575 17.59168,-5.548538 1.064296,-0.172235 3.477425,-0.05114 3.537155,3.187571 0.06914,3.749689 0.204554,23.660196 -1.227327,28.296626 -1.431881,4.63643 -2.81835,9.659672 -6.818412,9.273064 -3.786097,-0.365948 -6.341188,-2.522769 -6.341188,-2.522769 0,0 1.178438,-4.174137 1.568319,-5.301437 0.946064,-2.735915 1.840991,-3.605271 1.50859,-5.753092 -0.214986,-1.389129 -2.402697,-5.413328 -8.395323,-5.923486 -4.005789,-0.340992 -3.340987,0.522636 -1.909106,3.204754 1.407334,2.636297 3.113932,3.72739 3.113932,5.954783 0,1.620889 -3.045611,15.455516 -2.977494,20.023829 0.06812,4.568314 -0.238715,10.568508 10.023167,13.159599 13.718031,3.463924 22.228313,-0.636369 21.955437,-2.454653 -0.344265,-2.293464 -2.454653,-4.159205 -6.886528,-4.227526 -3.115978,-0.04787 -4.433512,1.254532 -9.409503,0.954655 -5.659406,-0.340992 -10.023167,-1.568318 -10.436571,-3.383738 -1.405698,-6.173248 1.504293,-14.139823 1.504293,-14.139823 0,0 4.295644,6.238909 8.114061,6.545741 5.307982,0.426495 8.454847,-2.999995 9.682173,-9.682174 1.227326,-6.682178 2.804032,-36.487393 1.78126,-38.669374 -1.022772,-2.181983 -3.375148,-4.116658 -6.486011,-3.468834 -2.898331,0.603435 -14.668598,4.108066 -18.827802,4.31262 z"
   id="path2533"
   inkscape:connector-curvature="0"
   style="stroke-width:0.20455439" />
</svg>