<?xml version="1.0" encoding="UTF-8" standalone="no"?>
<!-- Generator: Adobe Illustrator 12.0.0, SVG Export Plug-In . SVG Version: 6.00 Build 51448)  -->

<svg
   xmlns:dc="http://purl.org/dc/elements/1.1/"
   xmlns:cc="http://creativecommons.org/ns#"
   xmlns:rdf="http://www.w3.org/1999/02/22-rdf-syntax-ns#"
   xmlns:svg="http://www.w3.org/2000/svg"
   xmlns="http://www.w3.org/2000/svg"
   xmlns:sodipodi="http://sodipodi.sourceforge.net/DTD/sodipodi-0.dtd"
   xmlns:inkscape="http://www.inkscape.org/namespaces/inkscape"
   version="1.1"
   id="レイヤー_1"
   width="100"
   height="100"
   viewBox="0 0 99.999999 100"
   overflow="visible"
   enable-background="new 0 0 362.091 339.063"
   xml:space="preserve"
   sodipodi:docname="Hiragana_KO_01.svg"
   style="overflow:visible"
   inkscape:version="0.92.3 (2405546, 2018-03-11)"><metadata
   id="metadata843"><rdf:RDF><cc:Work
       rdf:about=""><dc:format>image/svg+xml</dc:format><dc:type
         rdf:resource="http://purl.org/dc/dcmitype/StillImage" /><dc:title /></cc:Work></rdf:RDF></metadata><defs
   id="defs841" /><sodipodi:namedview
   pagecolor="#ffffff"
   bordercolor="#666666"
   borderopacity="1"
   objecttolerance="10"
   gridtolerance="10"
   guidetolerance="10"
   inkscape:pageopacity="0"
   inkscape:pageshadow="2"
   inkscape:window-width="1920"
   inkscape:window-height="1001"
   id="namedview839"
   showgrid="false"
   inkscape:zoom="5.5682869"
   inkscape:cx="25.864407"
   inkscape:cy="47.673554"
   inkscape:window-x="-9"
   inkscape:window-y="-9"
   inkscape:window-maximized="1"
   inkscape:current-layer="レイヤー_1" />


<g
   id="g1394"
   transform="matrix(0.20645081,0,0,0.20645081,12.622882,15.000287)"><path
     id="path832"
     d="m 133.495,34 c 14.333,10.667 18.667,44.333 5.333,57.333 -18.618,18.152 -38,18.333 -49.333,18.667 -12.999,0.382 -36,-4.333 -32,6.667 5.696,15.663 17.333,31 42.667,26.333 24.715,-4.553 42,-17 45,-13.333 3.194,3.904 3.6,15.119 2,25.333 -4.333,27.667 15.333,60.334 25.333,19 5.013,-20.72 -2.988,-38 -4,-52.667 -1.333,-19.333 32.99,-30.06 45,-34.667 24.333,-9.333 26.354,-40.922 3.667,-40 -41,1.667 -37.333,-11 -46.667,-26.667 -9.334,-15.667 -19.333,-20 -40,-20 -19.29,0.001 -38.737,2.939 3,34.001 z"
     inkscape:connector-curvature="0" /><path
     id="path834"
     d="m 38.495,290.667 c 11.565,4.337 18.333,3 37,-12 18.818,-15.121 42.974,-33.45 13.667,5.333 -19.458,25.75 -42,52.667 -53.667,54.667 -11.667,2 -26.333,-3.333 -31,-22 -4.545,-18.182 -7,-37.333 -0.667,-55.333 6.235,-17.721 20.96,-28.01 22,7.333 0.333,11.333 2,18 12.667,22 z"
     inkscape:connector-curvature="0" /><path
     id="path836"
     d="m 302.078,214.75 c 24.365,21.815 -8,47.25 22.5,68.75 20.879,14.718 30.06,7.736 35.25,-11.5 4.25,-15.75 2.75,-26.5 -6.5,-41 -10.568,-16.566 -20.844,-27.564 -39.75,-36.75 -44.25,-21.5 -54.5,-18 -11.5,20.5 z"
     inkscape:connector-curvature="0" /></g>
</svg>