<?xml version="1.0" encoding="UTF-8" standalone="no"?>
<!-- Generator: Adobe Illustrator 12.0.0, SVG Export Plug-In . SVG Version: 6.00 Build 51448)  -->

<svg
   xmlns:dc="http://purl.org/dc/elements/1.1/"
   xmlns:cc="http://creativecommons.org/ns#"
   xmlns:rdf="http://www.w3.org/1999/02/22-rdf-syntax-ns#"
   xmlns:svg="http://www.w3.org/2000/svg"
   xmlns="http://www.w3.org/2000/svg"
   xmlns:sodipodi="http://sodipodi.sourceforge.net/DTD/sodipodi-0.dtd"
   xmlns:inkscape="http://www.inkscape.org/namespaces/inkscape"
   version="1.1"
   id="レイヤー_1"
   width="100"
   height="100"
   viewBox="0 0 100 99.999999"
   overflow="visible"
   enable-background="new 0 0 222.526 375.229"
   xml:space="preserve"
   sodipodi:docname="Hiragana_TA_01.svg"
   style="overflow:visible"
   inkscape:version="0.92.3 (2405546, 2018-03-11)"><metadata
   id="metadata1412"><rdf:RDF><cc:Work
       rdf:about=""><dc:format>image/svg+xml</dc:format><dc:type
         rdf:resource="http://purl.org/dc/dcmitype/StillImage" /><dc:title /></cc:Work></rdf:RDF></metadata><defs
   id="defs1410" /><sodipodi:namedview
   pagecolor="#ffffff"
   bordercolor="#666666"
   borderopacity="1"
   objecttolerance="10"
   gridtolerance="10"
   guidetolerance="10"
   inkscape:pageopacity="0"
   inkscape:pageshadow="2"
   inkscape:window-width="1920"
   inkscape:window-height="1001"
   id="namedview1408"
   showgrid="false"
   inkscape:zoom="3.5578742"
   inkscape:cx="28.571584"
   inkscape:cy="43.527398"
   inkscape:window-x="-9"
   inkscape:window-y="-9"
   inkscape:window-maximized="1"
   inkscape:current-layer="レイヤー_1" />
<path
   d="m 39.264019,21.350572 c -4.455231,-10.624598 -6.653865,-11.174257 -5.887141,-4.361091 0.665786,5.915525 5.076645,12.571388 8.394779,16.680834 4.267548,5.285116 18.200089,15.502363 20.406718,19.244038 2.206629,3.741675 2.206828,7.099788 -3.549794,5.756622 -5.756623,-1.343165 -23.096643,-3.388894 -28.878649,6.907508 -5.040268,8.975222 -0.352381,16.497747 12.376504,20.33976 13.349904,4.029295 26.040617,-0.268034 11.801066,-5.852364 -4.742253,-1.859844 -18.06297,-0.258039 -20.339755,-6.044243 -2.976151,-7.5635 2.273787,-11.975158 9.665989,-13.576363 3.614353,-0.782914 10.346969,-0.173492 15.089422,2.497648 6.957676,3.918764 10.488282,7.781963 12.854012,2.443881 C 74.938845,56.944049 67.890425,49.247632 61.341295,44.517971 53.297294,38.708584 43.083242,30.458312 39.264019,21.350572 Z"
   id="path1405"
   inkscape:connector-curvature="0"
   style="stroke-width:0.19987579" />
</svg>