<?xml version="1.0" encoding="UTF-8" standalone="no"?>
<!-- Generator: Adobe Illustrator 12.0.0, SVG Export Plug-In . SVG Version: 6.00 Build 51448)  -->

<svg
   xmlns:dc="http://purl.org/dc/elements/1.1/"
   xmlns:cc="http://creativecommons.org/ns#"
   xmlns:rdf="http://www.w3.org/1999/02/22-rdf-syntax-ns#"
   xmlns:svg="http://www.w3.org/2000/svg"
   xmlns="http://www.w3.org/2000/svg"
   xmlns:sodipodi="http://sodipodi.sourceforge.net/DTD/sodipodi-0.dtd"
   xmlns:inkscape="http://www.inkscape.org/namespaces/inkscape"
   version="1.1"
   id="レイヤー_1"
   width="100"
   height="100"
   viewBox="0 0 99.999997 99.999998"
   overflow="visible"
   enable-background="new 0 0 384.467 398.596"
   xml:space="preserve"
   sodipodi:docname="Hiragana_NO_01.svg"
   style="overflow:visible"
   inkscape:version="0.92.3 (2405546, 2018-03-11)"><metadata
   id="metadata2519"><rdf:RDF><cc:Work
       rdf:about=""><dc:format>image/svg+xml</dc:format><dc:type
         rdf:resource="http://purl.org/dc/dcmitype/StillImage" /><dc:title /></cc:Work></rdf:RDF></metadata><defs
   id="defs2517" /><sodipodi:namedview
   pagecolor="#ffffff"
   bordercolor="#666666"
   borderopacity="1"
   objecttolerance="10"
   gridtolerance="10"
   guidetolerance="10"
   inkscape:pageopacity="0"
   inkscape:pageshadow="2"
   inkscape:window-width="1920"
   inkscape:window-height="1001"
   id="namedview2515"
   showgrid="false"
   inkscape:zoom="3.3493"
   inkscape:cx="48.032794"
   inkscape:cy="-7.991881"
   inkscape:window-x="-9"
   inkscape:window-y="-9"
   inkscape:window-maximized="1"
   inkscape:current-layer="レイヤー_1" />


<path
   style="stroke-width:0.20070383"
   d="M 60.03125 10.001953 C 58.70021 9.966806 57.856487 10.510373 57.900391 11.673828 C 57.983081 13.866919 61.882744 15.201874 63.019531 19.501953 C 64.173578 23.867262 63.453383 30.792258 62.767578 33 C 62.437219 34.063329 34.310387 56.954487 32.244141 58.103516 C 29.574178 59.587922 28.722709 59.517192 27.59375 58.513672 C 26.439502 57.487674 24.954342 53.683809 25.287109 51.080078 C 25.907484 46.226658 32.911228 36.918971 34.5 34.664062 C 35.631367 33.058433 38.186394 31.526544 39.5 29.847656 C 40.568347 28.482268 40.80715 26.483948 39.9375 25.212891 C 39.067851 23.941834 34.829538 19.887354 30.523438 19.921875 C 25.961841 19.958205 21.97394 23.8166 17.708984 24.318359 C 15.315992 24.599947 9.8693333 21.45457 11.839844 25.523438 C 13.33007 28.600829 16.436886 30.395492 20.560547 28.607422 C 24.059618 27.090101 26.603653 24.349581 28.917969 24.154297 C 31.946791 23.898801 33.950636 24.963964 32.421875 29.410156 C 29.247142 38.642934 21.786548 44.921653 21.582031 53.822266 C 21.505961 57.133679 26.758669 62.587341 26.625 63.189453 C 26.491331 63.791564 19.131917 71.083193 17.660156 74.09375 C 16.188395 77.104308 15.013929 81.994298 18.261719 86.001953 C 21.406146 89.88216 26.757876 92.223263 30.972656 86.871094 C 35.187437 81.518925 37.954591 73.382902 34.853516 68.40625 C 31.658914 63.279872 31.442221 62.853757 32.378906 61.783203 C 33.315591 60.712649 56.361626 41.747079 60.007812 39.238281 C 62.485101 37.533904 62.074074 38.320154 61.730469 40.107422 C 61.396097 41.846922 58.201801 54.358178 58.134766 61.382812 C 58.067736 68.407448 58.202443 75.84869 64.357422 75.832031 C 69.306779 75.818781 74.608922 73.239701 76.130859 75.564453 C 77.868954 78.219564 78.071509 80.38206 71.046875 83.660156 C 64.022241 86.938251 58.536704 90.484537 62.550781 88.878906 C 66.564857 87.273276 73.455997 84.41278 78.875 83.275391 C 84.294004 82.138003 89.896617 81.060606 88.306641 76.703125 C 86.95189 72.990104 83.03816 71.182423 79.341797 71.349609 C 75.117985 71.540679 68.455095 73.50708 64.775391 70.429688 C 61.095687 67.352294 61.062418 62.436034 61.865234 56.28125 C 62.668049 50.126467 64.356284 37.498129 65.292969 36.695312 C 66.229654 35.892497 74.500125 31.735524 78.472656 31.34375 C 82.035149 30.992519 84.13691 25.776197 78.923828 25.222656 C 73.253945 24.620544 71.314106 23.344534 69.84375 21.308594 C 67.2346 17.695925 69.241219 14.836374 66.732422 12.929688 C 64.260566 11.051099 61.742587 10.047142 60.03125 10.001953 z M 68.302734 22.751953 C 68.499719 22.779908 68.711309 22.896499 68.939453 23.115234 C 69.52892 23.680817 74.167291 26.442576 73.080078 27.613281 C 72.440034 28.302699 70.58606 29.086325 68.712891 30.089844 C 67.26702 30.86436 65.871681 31.832812 65.878906 31.476562 C 65.901644 30.354861 66.398552 22.48172 68.302734 22.751953 z M 28.259766 66.347656 C 29.125289 66.253699 29.578868 67.827995 29.701172 71.986328 C 29.80333 75.46011 28.881694 78.90398 26.189453 80.617188 C 22.87784 82.724577 21.523163 78.709308 21.824219 75.498047 C 22.113031 72.417645 25.531518 68.254333 27.59375 66.667969 C 27.838358 66.479809 28.06003 66.369339 28.259766 66.347656 z "
   id="path2508" />
</svg>