<?xml version="1.0" encoding="UTF-8" standalone="no"?>
<!-- Generator: Adobe Illustrator 12.0.0, SVG Export Plug-In . SVG Version: 6.00 Build 51448)  -->

<svg
   xmlns:dc="http://purl.org/dc/elements/1.1/"
   xmlns:cc="http://creativecommons.org/ns#"
   xmlns:rdf="http://www.w3.org/1999/02/22-rdf-syntax-ns#"
   xmlns:svg="http://www.w3.org/2000/svg"
   xmlns="http://www.w3.org/2000/svg"
   xmlns:sodipodi="http://sodipodi.sourceforge.net/DTD/sodipodi-0.dtd"
   xmlns:inkscape="http://www.inkscape.org/namespaces/inkscape"
   version="1.1"
   id="レイヤー_1"
   width="100"
   height="100"
   viewBox="0 0 100 100"
   overflow="visible"
   enable-background="new 0 0 371.323 385.524"
   xml:space="preserve"
   sodipodi:docname="Hiragana_NA_01.svg"
   style="overflow:visible"
   inkscape:version="0.92.3 (2405546, 2018-03-11)"><metadata
   id="metadata1946"><rdf:RDF><cc:Work
       rdf:about=""><dc:format>image/svg+xml</dc:format><dc:type
         rdf:resource="http://purl.org/dc/dcmitype/StillImage" /><dc:title></dc:title></cc:Work></rdf:RDF></metadata><defs
   id="defs1944" /><sodipodi:namedview
   pagecolor="#ffffff"
   bordercolor="#666666"
   borderopacity="1"
   objecttolerance="10"
   gridtolerance="10"
   guidetolerance="10"
   inkscape:pageopacity="0"
   inkscape:pageshadow="2"
   inkscape:window-width="1920"
   inkscape:window-height="1001"
   id="namedview1942"
   showgrid="false"
   inkscape:zoom="1.7314326"
   inkscape:cx="174.89801"
   inkscape:cy="90.400204"
   inkscape:window-x="-9"
   inkscape:window-y="-9"
   inkscape:window-maximized="1"
   inkscape:current-layer="レイヤー_1" />

<g
   id="g2493"
   transform="matrix(0.20232065,0,0,0.20232065,12.436717,11.000157)"><path
     id="path1937"
     d="m 146.348,19.499 c 9.872,8.328 14.583,19.333 15.25,29.5 0.639,9.742 -2.25,24.583 -20.5,24.833 -21.5,0.294 -37.333,-1.167 -54.083,-10.417 -16.75,-9.25 -40.645,-35.699 -37.833,-23.749 4.333,18.417 8.5,27.25 15.917,38.083 5.305,7.749 8.333,14 32.583,19.5 24.25,5.5 36.667,3.25 30.917,11 -5.75,7.75 -26.5,34.5 -43.75,49 -17.25,14.5 -61.25,33.25 -43,48.25 13.492,11.089 32.551,0.294 49,-12.5 11.25,-8.75 27,-8.75 43.75,-5 16.75,3.75 28.75,11.75 37.5,24.5 8.546,12.453 9.809,24.496 10,49.5 0.25,32.75 -5.75,49.75 -19.5,63.75 -13.75,14 -28.25,20 -46.25,19.5 -18,-0.5 -29.5,-2.25 -37.25,-14.75 -7.75,-12.5 -11,-23 -9.75,-28.25 1.25,-5.25 24.75,-21.25 30,-26.25 5.25,-5 51.5,-50 14,-26.75 -35.423,21.962 -48,28.75 -64.25,30.75 -15.183,1.868 -25.982,-1.815 -38.982,5.935 -13,7.75 -12.877,18.438 -3.018,27.065 8,7 13.75,9 25,5.75 13.157,-3.801 18.25,-9.25 21,-7.75 2.75,1.5 2.113,12.922 4.217,21.338 3.467,13.866 14.127,28.873 22.4,37.866 9.2,10 22.133,16.8 49.133,15.046 29.167,-1.895 49.5,-23.75 59.5,-40 10,-16.25 21.25,-51.75 21,-73.25 -0.25,-21.5 -8.75,-73 -40.75,-87 -32,-14 -55.979,-10.993 -56.25,-23 -0.186,-8.264 6.943,-20.09 15.772,-33.401 6.988,-10.535 16.375,-23.989 24.728,-24.899 11.529,-1.256 26.8,1 49.25,-4.7 21.157,-5.372 41.875,-18.563 24.938,-27.563 -6.56,-3.485 -18,-6.938 -33.938,-4.188 -9.035,1.559 -17.368,1.727 -4.25,-20 4,-6.625 -2.125,-22.917 -19.125,-36.25 -12.168,-9.542 -60.126,-22.499 -23.376,8.501 z"
     inkscape:connector-curvature="0" /><path
     id="path1939"
     d="m 318.223,252.249 c 7.25,12.75 8.75,20.013 8.75,27.625 0,7.612 -2.827,18.899 -1.097,24.436 1.73,5.537 20.416,39.446 35.641,15.225 15.225,-24.221 10.034,-33.909 2.422,-47.404 -7.612,-13.495 -14.533,-27.682 -30.796,-38.063 -16.263,-10.381 -52.25,-27.337 -35.641,-8.997 16.609,18.34 16.497,19.748 20.721,27.178 z"
     inkscape:connector-curvature="0" /></g>
</svg>