<?xml version="1.0" encoding="UTF-8" standalone="no"?>
<!-- Generator: Adobe Illustrator 12.0.0, SVG Export Plug-In . SVG Version: 6.00 Build 51448)  -->

<svg
   xmlns:dc="http://purl.org/dc/elements/1.1/"
   xmlns:cc="http://creativecommons.org/ns#"
   xmlns:rdf="http://www.w3.org/1999/02/22-rdf-syntax-ns#"
   xmlns:svg="http://www.w3.org/2000/svg"
   xmlns="http://www.w3.org/2000/svg"
   xmlns:sodipodi="http://sodipodi.sourceforge.net/DTD/sodipodi-0.dtd"
   xmlns:inkscape="http://www.inkscape.org/namespaces/inkscape"
   version="1.1"
   id="レイヤー_1"
   width="100"
   height="100"
   viewBox="0 0 100 100"
   overflow="visible"
   enable-background="new 0 0 369.231 377.224"
   xml:space="preserve"
   sodipodi:docname="Hiragana_O_01.svg"
   style="overflow:visible"
   inkscape:version="0.92.3 (2405546, 2018-03-11)"><metadata
   id="metadata3093"><rdf:RDF><cc:Work
       rdf:about=""><dc:format>image/svg+xml</dc:format><dc:type
         rdf:resource="http://purl.org/dc/dcmitype/StillImage" /><dc:title></dc:title></cc:Work></rdf:RDF></metadata><defs
   id="defs3091" /><sodipodi:namedview
   pagecolor="#ffffff"
   bordercolor="#666666"
   borderopacity="1"
   objecttolerance="10"
   gridtolerance="10"
   guidetolerance="10"
   inkscape:pageopacity="0"
   inkscape:pageshadow="2"
   inkscape:window-width="1920"
   inkscape:window-height="1001"
   id="namedview3089"
   showgrid="false"
   inkscape:zoom="2.5024919"
   inkscape:cx="165.32859"
   inkscape:cy="130.07874"
   inkscape:window-x="-9"
   inkscape:window-y="-9"
   inkscape:window-maximized="1"
   inkscape:current-layer="レイヤー_1" />


<g
   id="g3641"
   transform="matrix(0.19882125,0,0,0.19882125,13.294427,12.499658)"><path
     id="path3082"
     d="m 98.654,51.623 c 1.667,29 -7,33 -42.333,33 -17.003,0 -63.667,-46 -55.333,-18 6.278,21.096 16.545,39.688 36.667,47.667 19.333,7.667 51,0 54.333,3.667 3.333,3.667 5.156,58.602 -4,74.667 -19,33.334 -61.9,68.815 -58.667,30.334 3.333,-39.667 -15.472,-15.678 -21,6.666 -8,32.334 7,59.667 35,37.667 28,-22 42.333,-39.999 45,-39.333 2.667,0.666 4,44.333 1.333,55.333 -2.667,11 -12.315,15.289 -20.333,12 -13,-5.333 15.362,17.288 16,34.667 1.333,36.333 23,72.333 29.667,23.666 8.552,-62.431 -3,-151 -0.667,-156.333 2.333,-5.333 38.333,-46.334 22.333,-60.667 -16,-14.333 -23,-22 -5.667,-31.333 17.333,-9.333 51.705,-28.541 23,-46.333 -40.333,-25 -23.667,-35 -32.667,-46 C 112.215,1.827 104.654,-2.71 82.654,1.623 c -14.819,2.918 -14.334,10 0.333,23 14.667,13 15.016,15.665 15.667,27 z"
     inkscape:connector-curvature="0" /><path
     id="path3084"
     d="m 296.321,45.956 c 6.188,4.046 14.646,18.985 23.333,25.667 13,10 36.157,16.37 29.333,-7.667 -7.666,-27 -18.333,-33.333 -40.333,-41.333 -22,-8 -42.333,-4.667 -51.333,-0.333 -9,4.334 21.667,12.333 39,23.666 z"
     inkscape:connector-curvature="0" /><path
     id="path3086"
     d="m 326.654,299.29 c -29.381,-2.49 -55.333,-11 -72.333,-32 -17,-21 -37,-36.333 -24.667,-11.333 12.333,25 28.001,44.666 44.667,55.333 16.666,10.667 38.666,17 54.666,20 16,3 44.667,6.667 39.667,-16 -5,-22.667 -22.333,-14.333 -42,-16 z"
     inkscape:connector-curvature="0" /></g>
</svg>