<?xml version="1.0" encoding="UTF-8" standalone="no"?>
<!-- Generator: Adobe Illustrator 12.0.0, SVG Export Plug-In . SVG Version: 6.00 Build 51448)  -->

<svg
   xmlns:dc="http://purl.org/dc/elements/1.1/"
   xmlns:cc="http://creativecommons.org/ns#"
   xmlns:rdf="http://www.w3.org/1999/02/22-rdf-syntax-ns#"
   xmlns:svg="http://www.w3.org/2000/svg"
   xmlns="http://www.w3.org/2000/svg"
   xmlns:sodipodi="http://sodipodi.sourceforge.net/DTD/sodipodi-0.dtd"
   xmlns:inkscape="http://www.inkscape.org/namespaces/inkscape"
   version="1.1"
   id="レイヤー_1"
   width="100"
   height="100"
   viewBox="0 0 99.999998 100"
   overflow="visible"
   enable-background="new 0 0 391.018 293.819"
   xml:space="preserve"
   sodipodi:docname="Hiragana_YU_01.svg"
   style="overflow:visible"
   inkscape:version="0.92.3 (2405546, 2018-03-11)"><metadata
   id="metadata9"><rdf:RDF><cc:Work
       rdf:about=""><dc:format>image/svg+xml</dc:format><dc:type
         rdf:resource="http://purl.org/dc/dcmitype/StillImage" /><dc:title /></cc:Work></rdf:RDF></metadata><defs
   id="defs7" /><sodipodi:namedview
   pagecolor="#ffffff"
   bordercolor="#666666"
   borderopacity="1"
   objecttolerance="10"
   gridtolerance="10"
   guidetolerance="10"
   inkscape:pageopacity="0"
   inkscape:pageshadow="2"
   inkscape:window-width="1920"
   inkscape:window-height="1001"
   id="namedview5"
   showgrid="false"
   inkscape:zoom="3.2128623"
   inkscape:cx="85.423332"
   inkscape:cy="44.776259"
   inkscape:window-x="-9"
   inkscape:window-y="-9"
   inkscape:window-maximized="1"
   inkscape:current-layer="レイヤー_1" />
<path
   d="m 20.021471,39.656671 c 5.68513,1.026482 20.292755,-2.684644 37.979825,-9.948977 19.526842,-8.019981 28.89941,2.921525 30.162772,11.44922 1.356933,9.159968 -0.394801,19.977112 -6.790374,27.004366 C 74.231749,76.008536 60.391025,80.698373 49.631719,78.426098 40.097283,76.412615 34.155532,71.714487 32.65529,62.949912 31.752775,57.677941 31.865688,36.577424 38.261459,27.02305 c 5.316386,-7.941811 11.844021,-7.027452 14.844506,-3.000485 2.786306,3.739354 -1.3668,16.894508 0.552721,20.055874 2.684842,4.421768 8.731807,1.252703 12.870502,2.605685 4.105927,1.342322 4.263847,4.579687 -0.15792,5.685129 -4.993834,1.24836 -13.608385,2.092839 -17.21331,-3.869046 -2.052963,-3.395286 1.993744,-18.378169 0.868562,-19.818994 -1.892675,-2.424077 -5.053449,-2.842565 -7.659133,-0.947522 -2.847895,2.071322 -6.950664,8.450314 -7.185373,18.476672 -0.31584,13.488957 0.631681,19.34543 8.053934,22.819676 7.422253,3.474246 16.108065,4.421768 22.9774,0.789602 6.869334,-3.632167 12.753443,-9.065019 15.475989,-14.765546 2.526724,-5.290329 1.89524,-16.108065 -1.263165,-19.898151 -3.158405,-3.790087 -7.896014,-5.369092 -13.265303,-4.658648 -6.797086,0.899553 -19.977112,6.238048 -24.161801,7.974973 -6.632257,2.752946 -15.081386,8.053934 -18.476672,8.922298 -4.519283,1.155779 -10.122492,-3.52399 -11.6861,-5.448249 -3.0796427,-3.789692 -1.404898,-3.840621 7.185175,-2.289647 z"
   id="path2"
   inkscape:connector-curvature="0"
   style="stroke-width:0.19740035" />
</svg>